<svg width="77" height="46" viewBox="0 0 77 46" fill="none" xmlns="http://www.w3.org/2000/svg">
<path d="M23.125 23.5781C23.125 27.5 22.2344 30.6328 20.4531 32.9766C18.6719 35.3047 16.2812 36.4688 13.2812 36.4688C10.5 36.4688 8.27344 35.5547 6.60156 33.7266V45.75H0.90625V10.6406H6.15625L6.39062 13.2188C8.0625 11.1875 10.3359 10.1719 13.2109 10.1719C16.3047 10.1719 18.7266 11.3281 20.4766 13.6406C22.2422 15.9375 23.125 19.1328 23.125 23.2266V23.5781ZM17.4531 23.0859C17.4531 20.5547 16.9453 18.5469 15.9297 17.0625C14.9297 15.5781 13.4922 14.8359 11.6172 14.8359C9.28906 14.8359 7.61719 15.7969 6.60156 17.7188V28.9688C7.63281 30.9375 9.32031 31.9219 11.6641 31.9219C13.4766 31.9219 14.8906 31.1953 15.9062 29.7422C16.9375 28.2734 17.4531 26.0547 17.4531 23.0859ZM41.2422 15.8438C40.4922 15.7188 39.7188 15.6562 38.9219 15.6562C36.3125 15.6562 34.5547 16.6562 33.6484 18.6562V36H27.9531V10.6406H33.3906L33.5312 13.4766C34.9062 11.2734 36.8125 10.1719 39.25 10.1719C40.0625 10.1719 40.7344 10.2812 41.2656 10.5L41.2422 15.8438ZM55.5391 36.4688C51.9297 36.4688 49 35.3359 46.75 33.0703C44.5156 30.7891 43.3984 27.7578 43.3984 23.9766V23.2734C43.3984 20.7422 43.8828 18.4844 44.8516 16.5C45.8359 14.5 47.2109 12.9453 48.9766 11.8359C50.7422 10.7266 52.7109 10.1719 54.8828 10.1719C58.3359 10.1719 61 11.2734 62.875 13.4766C64.7656 15.6797 65.7109 18.7969 65.7109 22.8281V25.125H49.1406C49.3125 27.2188 50.0078 28.875 51.2266 30.0938C52.4609 31.3125 54.0078 31.9219 55.8672 31.9219C58.4766 31.9219 60.6016 30.8672 62.2422 28.7578L65.3125 31.6875C64.2969 33.2031 62.9375 34.3828 61.2344 35.2266C59.5469 36.0547 57.6484 36.4688 55.5391 36.4688ZM54.8594 14.7422C53.2969 14.7422 52.0312 15.2891 51.0625 16.3828C50.1094 17.4766 49.5 19 49.2344 20.9531H60.0859V20.5312C59.9609 18.625 59.4531 17.1875 58.5625 16.2188C57.6719 15.2344 56.4375 14.7422 54.8594 14.7422ZM76.2109 36H70.5156V0H76.2109V36Z" fill="#FF61BE"/>
</svg>

