<svg width="50" height="50" viewBox="0 0 50 50" fill="none" xmlns="http://www.w3.org/2000/svg">
<g filter="url(#filter0_dd)">
<circle cx="124" cy="124" r="120" fill="white"/>
</g>
<path d="M108.125 127.578C108.125 131.5 107.234 134.633 105.453 136.977C103.672 139.305 101.281 140.469 98.2812 140.469C95.5 140.469 93.2734 139.555 91.6016 137.727V149.75H85.9062V114.641H91.1562L91.3906 117.219C93.0625 115.188 95.3359 114.172 98.2109 114.172C101.305 114.172 103.727 115.328 105.477 117.641C107.242 119.938 108.125 123.133 108.125 127.227V127.578ZM102.453 127.086C102.453 124.555 101.945 122.547 100.93 121.062C99.9297 119.578 98.4922 118.836 96.6172 118.836C94.2891 118.836 92.6172 119.797 91.6016 121.719V132.969C92.6328 134.938 94.3203 135.922 96.6641 135.922C98.4766 135.922 99.8906 135.195 100.906 133.742C101.938 132.273 102.453 130.055 102.453 127.086ZM126.242 119.844C125.492 119.719 124.719 119.656 123.922 119.656C121.312 119.656 119.555 120.656 118.648 122.656V140H112.953V114.641H118.391L118.531 117.477C119.906 115.273 121.812 114.172 124.25 114.172C125.062 114.172 125.734 114.281 126.266 114.5L126.242 119.844ZM140.539 140.469C136.93 140.469 134 139.336 131.75 137.07C129.516 134.789 128.398 131.758 128.398 127.977V127.273C128.398 124.742 128.883 122.484 129.852 120.5C130.836 118.5 132.211 116.945 133.977 115.836C135.742 114.727 137.711 114.172 139.883 114.172C143.336 114.172 146 115.273 147.875 117.477C149.766 119.68 150.711 122.797 150.711 126.828V129.125H134.141C134.312 131.219 135.008 132.875 136.227 134.094C137.461 135.312 139.008 135.922 140.867 135.922C143.477 135.922 145.602 134.867 147.242 132.758L150.312 135.688C149.297 137.203 147.938 138.383 146.234 139.227C144.547 140.055 142.648 140.469 140.539 140.469ZM139.859 118.742C138.297 118.742 137.031 119.289 136.062 120.383C135.109 121.477 134.5 123 134.234 124.953H145.086V124.531C144.961 122.625 144.453 121.188 143.562 120.219C142.672 119.234 141.438 118.742 139.859 118.742ZM161.211 140H155.516V104H161.211V140Z" fill="#FF61BE"/>
<defs>
<filter id="filter0_dd" x="0" y="0" width="248.5" height="248.5" filterUnits="userSpaceOnUse" color-interpolation-filters="sRGB">
<feFlood flood-opacity="0" result="BackgroundImageFix"/>
<feColorMatrix in="SourceAlpha" type="matrix" values="0 0 0 0 0 0 0 0 0 0 0 0 0 0 0 0 0 0 127 0"/>
<feOffset dx="-1" dy="-1"/>
<feGaussianBlur stdDeviation="1.5"/>
<feColorMatrix type="matrix" values="0 0 0 0 1 0 0 0 0 0.380392 0 0 0 0 0.745098 0 0 0 1 0"/>
<feBlend mode="normal" in2="BackgroundImageFix" result="effect1_dropShadow"/>
<feColorMatrix in="SourceAlpha" type="matrix" values="0 0 0 0 0 0 0 0 0 0 0 0 0 0 0 0 0 0 127 0"/>
<feOffset dx="1.5" dy="1.5"/>
<feGaussianBlur stdDeviation="1.5"/>
<feColorMatrix type="matrix" values="0 0 0 0 0.525 0 0 0 0 0.525 0 0 0 0 0.525 0 0 0 0.51 0"/>
<feBlend mode="normal" in2="effect1_dropShadow" result="effect2_dropShadow"/>
<feBlend mode="normal" in="SourceGraphic" in2="effect2_dropShadow" result="shape"/>
</filter>
</defs>
</svg>

